<svg xmlns="http://www.w3.org/2000/svg" fill="none" viewBox="0 0 360 360">
  <defs/>
  <g filter="url(#filter0_d)">
    <path fill="#830505" stroke="#000" d="M39.4084 51.094l-.0004.0003C18.6688 70.3019 7.55955 89.2498 5.05175 114.776c-2.50262 25.473 3.56662 57.452 17.04445 102.718 4.0838 35.833 10.0212 60.843 21.4713 79.811 11.4672 18.996 28.4292 31.877 54.4354 43.533l.0327.015.0345.01c30.7599 8.78 54.7589 12.55 78.6569 9.7 23.88-2.847 47.609-12.297 77.848-29.867 23.257-5.235 39.976-10.622 53.746-18.604 13.794-7.996 24.597-18.579 36.052-34.155l.036-.049.024-.057c16.699-40.585 14.517-74.599-6.66-151.319-2.139-18.6082-4.542-32.5868-8.968-44.9565-4.432-12.3888-10.886-23.1412-21.098-35.3146l-.006-.0074C288.841 14.636 265.1 9.7781 207.336 9.77026 171.091.610925 143.49-2.37591 117.748 3.60275 91.9866 9.58569 68.1537 24.5308 39.4084 51.094z"/>
    <g filter="url(#filter1_i)">
      <path fill="#fff" fill-rule="evenodd" d="M161.118 94.009c20.234-19.3232 29.704-23.5495 37.333-28.0001 3.306-1.9444 11.121-6.2091 15.75-8.1666 11.888-5.0266 27.31-7.0987 40.25-5.25 4.084.5833 15.167 4.0833 18.667 10.5 3.5 6.4166 2.549 11.4074-.583 16.3333-3.133 4.9259-12.421 11.2614-19.834 14.5834-17.702 7.933-40.347 13.417-59.5 13.417-12.354 12.674-33.063 46.519-32.083 64.166 4.667 5.6 19.445 1.167 26.25-1.166.744-.256 2.119-.836 4.249-1.735 3.926-1.659 10.418-4.4 20.251-8.182 16.163-6.217 27.222-3.694 30.333-2.917 3.5 1.75 3.79 3.22 3.5 4.667-.664 3.32-9.557 6.812-16.065 9.367-8.528 3.349-25.184 12.922-28.053 14.874-2.868 1.952-22.692 17.346-32.666 30.333-9.975 12.987-18.723 20.29-28.583 46.083-1.628 6.246-5.035 17.241 2.333 21.584 3.806 4.983 10.92 4.29 18.451 2.592 10.049-3.25 15.095-5.463 23.333-9.916 16.665-9.482 24.77-14.928 35-25.084l20.417-22.75c5.508-4.92 10.53-6.737 15.382-2.009 2.804 3.768.099 7.763-1.965 10.5l-24.5 27.093c-17.453 13.924-28.266 20.607-49.584 30.333-6.109 2.318-8.999 3.014-14 4.083-12.671 3.62-29.769.585-35-1.75-5.23-2.334-17.231-7.782-19.617-16.592-1.828-6.417-3.334-18.311.951-28.908 7.271-16.528 11.669-24.798 20.416-36.75 13.008-14.534 19.563-20.536 28.584-26.833-10.08-1.413-15.307-2.45-23.917-4.667-7.328-3.322-10.574-5.795-12.833-12.25-1.163-10.821-.416-16.699 3.5-26.833 5.006-11.229 7.991-17.146 14-26.25l10.5-14c-1.02-1.429-16.045-.016-22.75 1.167-5.191.915-18.797 5.821-21 7.583-8.8946 4.628-13.1599 7.464-19.8336 12.833-5.441 5.703-7.5295 9.222-10.5 15.75-1.5037 4.693-1.6188 6.912-1.1666 10.5-3.2162 2.174-5.3963 2.542-9.9167 1.75-4.2054-.615-5.0649-4.251-4.0833-10.5 4.856-11.172 5.4527-12.771 6.3735-14.153.4828-.726 1.0547-1.391 2.3765-3.347 3.8425-5.684 9.9374-10.73 12.8333-12.833 10.5417-6.2 16.5519-8.957 27.4169-12.833 8.825-2.2675 13.381-3.4058 17.5-4.0837 5.841-.2502 6.265-1.8878 32.083-2.3333zm63.216-19.5093c-3.958 2.9765-19.648 16.1746-22.966 21.8426l24.5-4.6667c4.514-.8949 12.86-4.653 14-5.25 3.413-1.7875 10.602-8.3679 11.083-11.0833 1.87-3.9128 2.587-6.0588 0-9.3334-2.752-1.6982-4.68-1.9309-8.75-1.1666-3.888 1.0178-15.68 8.0121-17.867 9.6574z" clip-rule="evenodd"/>
    </g>
  </g>
  <defs>
    <filter id="filter0_d" width="360" height="360" x=".00018311" y=".00006104" color-interpolation-filters="sRGB" filterUnits="userSpaceOnUse">
      <feFlood flood-opacity="0" result="BackgroundImageFix"/>
      <feColorMatrix in="SourceAlpha" values="0 0 0 0 0 0 0 0 0 0 0 0 0 0 0 0 0 0 127 0"/>
      <feOffset dy="4"/>
      <feGaussianBlur stdDeviation="2"/>
      <feColorMatrix values="0 0 0 0 0 0 0 0 0 0 0 0 0 0 0 0 0 0 0.25 0"/>
      <feBlend in2="BackgroundImageFix" result="effect1_dropShadow"/>
      <feBlend in="SourceGraphic" in2="effect1_dropShadow" result="shape"/>
    </filter>
    <filter id="filter1_i" width="213.179" height="253.091" x="62.1669" y="51.9253" color-interpolation-filters="sRGB" filterUnits="userSpaceOnUse">
      <feFlood flood-opacity="0" result="BackgroundImageFix"/>
      <feBlend in="SourceGraphic" in2="BackgroundImageFix" result="shape"/>
      <feColorMatrix in="SourceAlpha" result="hardAlpha" values="0 0 0 0 0 0 0 0 0 0 0 0 0 0 0 0 0 0 127 0"/>
      <feOffset dy="4"/>
      <feGaussianBlur stdDeviation="2"/>
      <feComposite in2="hardAlpha" k2="-1" k3="1" operator="arithmetic"/>
      <feColorMatrix values="0 0 0 0 0 0 0 0 0 0 0 0 0 0 0 0 0 0 0.25 0"/>
      <feBlend in2="shape" result="effect1_innerShadow"/>
    </filter>
  </defs>
</svg>
