<svg xmlns="http://www.w3.org/2000/svg" viewBox="0 0 1024 1024">
  <defs/>
  <g fill="none" fill-rule="evenodd">
    <path fill="#590404" fill-rule="nonzero" d="M101.840804 147.601801l-.001167.000875C41.3355242 203.638538 8.92562807 258.916756 1.60942424 333.386372-5.69166758 407.700785 12.0146076 500.995669 51.33455 633.053777c11.9139937 104.538465 29.2356416 177.50213 62.639926 232.838988 33.454172 55.418544 82.93876 92.997311 158.80871 127.002289l.095399.04376.100649.029174c89.738296 25.614592 159.752482 36.613112 229.472013 28.298582 69.667018-8.30578 138.893511-35.875017 227.112144-87.133378 67.849491-15.272482 116.625156-30.988406 156.797469-54.274931 40.24233-23.327368 71.758779-54.201996 105.177359-99.643102l.105026-.142952.070017-.16629c48.717318-118.401854 42.351598-217.633606-19.429747-441.454973-6.240274-54.287185-13.250736-95.068068-26.163057-131.155179-12.929825-36.142833-31.758591-67.511666-61.550869-103.026096l-.017504-.021589C829.530311 41.2399731 760.268809 27.0676345 591.74931 27.044733 486.008897.32350165 405.486311-8.39022711 330.387132 9.05179398 255.231357 26.5063015 185.701748 70.1068614 101.840804 147.601801z"/>
    <path fill="#FFF" d="M449.231795 265.51014c61.231802-58.624305 91.654027-74.111538 114.740783-87.614133 10.004564-5.899079 33.65419-18.837675 47.662394-24.776499 35.975273-15.25011 82.645078-21.536617 121.803896-15.927879 12.358935 1.769663 45.898129 12.388249 56.489772 31.855759 10.591643 19.467206 7.713743 34.608703-1.764265 49.553302-9.481034 14.944598-37.588228 34.165756-60.021328 44.244312-53.569505 24.067784-122.097436 40.705592-180.057934 40.705592-37.385474 38.451418-112.323174 171.269576-97.089053 194.672061 14.1232 16.989738 58.844143 3.54054 79.437324-3.537506 2.25148-.776674 6.412483-2.536326 12.858254-5.263785 11.880798-5.03321 31.526783-13.34908 61.283248-24.823221 48.912207-18.861644 82.378774-11.20716 91.793231-8.849834 10.591643 5.309293 11.469237 9.7691 10.591643 14.159127-2.009386 10.072487-28.921238 20.666803-48.615642 28.418371-25.807295 10.16047-76.211411 39.203821-84.893532 45.125958-8.679095 5.922137-68.670162 52.625714-98.853319 92.026737-30.186183 39.401023-56.659238 61.557462-86.49741 139.810376-4.926627 18.949626-17.237355 54.961968 5.059567 68.138117 22.296922 13.176149 35.046446 10.360541 57.836636 5.20901 30.410121-9.860116 45.680244-16.574097 70.609946-30.083972 50.431352-28.767268 61.143517-37.424236 105.916431-76.101892l61.785594-69.020811c16.66822-14.926699 31.100833-22.442211 44.130837-9.838047 13.030005 12.604165-3.367409 28.98022-9.613452 37.283955-143.387236 120.037213-206.987792 152.221537-254.54031 170.624389-47.552518 18.402851-77.81061 18.402851-102.838543 12.837127-25.027933-5.565723-61.155198-27.454659-68.375672-54.183157-5.531864-19.46842-10.089297-55.55341 2.8779-87.703456 22.003382-50.143999 35.312539-75.234201 61.782568-111.495157 39.364598-44.094438 59.201232-62.303797 86.500436-81.408151-36.866964 0-91.16742-3.285891-104.516357-41.462644-13.348936-38.176753-7.954788-60.524327 3.895747-91.269685 15.149076-34.067459 24.182235-52.018938 42.366573-79.639398l33.205193-44.203251c-5.367599-1.304047-49.985382 1.680364-70.275944 5.269446-15.70892 2.776002-86.643248 21.515314-123.569977 61.939731-16.465466 17.302228-22.78565 27.978458-31.774929 47.783639-4.550473 14.238007-4.898786 20.970191-3.530346 31.855759-9.732812 6.595659-16.330195 7.712127-30.009757 5.309293-12.726313-1.865837-15.327318-12.897032-12.356816-31.855759 12.356816-45.755255 58.169231-84.537709 66.932756-90.917962 30.568167-20.877157 48.471367-28.283255 81.350853-40.042581 26.706072-6.879327 77.961565-19.468419 148.283004-16.803281zM573.44 270.336c42.612111-3.797254 81.575939-13.766542 116.891483-29.907864 30.472446-13.927736 50.750822-46.085379 41.575123-58.742044-9.175699-12.656664-46.962018.389747-67.17514 12.656665C644.518343 206.609674 583.513921 253.241828 573.44 270.336z"/>
  </g>
</svg>
