<svg xmlns="http://www.w3.org/2000/svg" fill="none" viewBox="0 0 407 499">
  <defs/>
  <rect width="297" height="397" x="110.571" y="1.76457" fill="#fff" stroke="#000" stroke-width="3" rx="3.5" transform="rotate(8 110.571 1.76457)"/>
  <rect width="297" height="397" x="59.3655" y="48.3127" fill="#fff" stroke="#000" stroke-width="3" rx="3.5" transform="rotate(5 59.3655 48.3127)"/>
  <rect width="297" height="397" x="1.5" y="100.5" fill="#fff" stroke="#000" stroke-width="3" rx="3.5"/>
  <path fill="#590404" d="M72.3935 234.234h-.0002c-11.5218 9.96-17.6936 19.784-19.0868 33.02-1.3904 13.208 1.9814 29.79 9.4691 53.261 2.2688 18.58 5.5674 31.549 11.9285 41.384 6.3707 9.85 15.794 16.529 30.2419 22.573l.018.007.019.006c17.089 4.552 30.422 6.507 43.699 5.029 13.266-1.476 26.449-6.376 43.249-15.486 12.92-2.715 22.208-5.508 29.858-9.647 7.664-4.146 13.665-9.634 20.029-17.71l.02-.025.014-.03c9.277-21.044 8.065-38.681-3.7-78.462-1.189-9.648-2.524-16.896-4.983-23.31-2.462-6.424-6.047-12-11.721-18.312l-.003-.004c-10.478-11.198-23.667-13.717-55.758-13.721-20.136-4.75-35.47-6.298-49.771-3.198-14.312 3.102-27.5529 10.851-43.5225 24.625z"/>
  <path fill="#fff" fill-rule="evenodd" d="M138.547 255.19c11.66-10.419 17.454-13.172 21.85-15.572 1.905-1.048 6.409-3.348 9.076-4.403 6.851-2.711 15.739-3.828 23.196-2.831 2.353.314 8.74 2.201 10.757 5.662 2.017 3.46 1.469 6.151-.336 8.807-1.806 2.656-7.158 6.072-11.43 7.864-10.201 4.277-23.251 7.234-34.288 7.234-7.12 6.835-21.39 30.441-18.489 34.6 2.69 3.02 11.206.63 15.127-.628.429-.138 1.221-.451 2.449-.936 2.262-.895 6.004-2.373 11.67-4.412 9.314-3.352 15.687-1.992 17.48-1.573 2.017.944 2.184 1.736 2.017 2.517-.382 1.79-5.507 3.673-9.258 5.051-4.914 1.805-14.513 6.967-16.166 8.02-1.653 1.053-13.077 9.353-18.825 16.356-5.748 7.003-10.789 10.941-16.471 24.849-.938 3.368-3.283 9.769.963 12.111 4.246 2.342 6.674 1.841 11.014.926 5.791-1.753 8.699-2.946 13.446-5.347 9.604-5.113 11.644-6.652 20.17-13.526l11.766-12.267c3.174-2.653 5.922-3.989 8.404-1.749 2.481 2.24-.642 5.151-1.831 6.627-27.305 21.334-39.417 27.055-48.472 30.325-9.056 3.271-14.818 3.271-19.584 2.282-4.766-.989-11.645-4.88-13.02-9.63-1.054-3.46-1.922-9.874.548-15.588 4.19-8.912 6.724-13.372 11.765-19.817 7.496-7.837 11.274-11.073 16.472-14.469-7.02 0-17.361-.584-19.903-7.369-2.542-6.785-1.515-10.757.742-16.222 2.885-6.055 4.605-9.245 8.068-14.154l6.323-7.857c-1.022-.232-9.519.299-13.383.937-2.991.493-16.499 3.824-23.5309 11.009-3.1356 3.075-4.3391 4.972-6.0509 8.492-.8666 2.531-.9329 3.727-.6723 5.662-1.8534 1.172-3.1098 1.371-5.7148.944-2.4234-.332-2.9187-2.292-2.3531-5.662 2.3531-8.132 11.0772-15.025 12.746-16.159 5.821-3.711 9.23-5.027 15.492-7.117 5.085-1.223 14.846-3.46 28.237-2.987zm23.653.858c8.115-.675 15.535-2.447 22.26-5.316 5.803-2.475 9.664-8.191 7.917-10.44-1.748-2.25-8.943.069-12.792 2.249-3.85 2.181-15.467 10.469-17.385 13.507z" clip-rule="evenodd"/>
</svg>
